<svg width="231" height="62" viewBox="0 0 231 62" fill="none" xmlns="http://www.w3.org/2000/svg">
<g clip-path="url(#clip0_717_8)">
<path d="M49.6299 25.2104L53.5762 20.5487C56.3597 17.2608 56.0638 12.2842 53.0513 9.2048C48.4518 4.59907 40.4515 6.79728 38.9694 13.1354L31 25.0771V47.2165L57.0535 37.9727C59.9935 36.9296 61.9951 34.0543 62.0001 30.9348C61.966 24.4594 54.2589 21.2232 49.6299 25.2104V25.2104Z" fill="#B0EBD8"/>
<path d="M23.0305 13.1354C21.5485 6.79728 13.548 4.59907 8.94863 9.2048C5.93611 12.2842 5.64022 17.2609 8.42372 20.5487L13.1049 26.0783C8.64975 20.8169 0.0369237 24.0384 0 30.933C0.0047402 34.0532 2.00598 36.9294 4.94653 37.9726L30.9999 47.2164V24.9503L23.0305 13.1354Z" fill="#30CD9C"/>
<path d="M31 0.00158691C25.4089 0.0212962 21.1895 5.26184 22.4625 10.7061L31 47.2164L39.5375 10.7061C40.8106 5.26184 36.5911 0.0212962 31 0.00158691V0.00158691Z" fill="#70DCBA"/>
<path d="M33.6848 39.7915H29.6662L25.2817 49.467L32.6908 58.0218H36.7094C38.5606 56.4354 39.7318 54.0911 39.7318 51.4762C39.7318 47.5962 36.6333 43.0867 33.6848 39.7915V39.7915Z" fill="#2ED0FC"/>
<path d="M29.3004 49.467C29.3004 46.3931 31.3504 42.7982 33.6849 39.7915H28.3238C25.3956 43.0878 22.2681 47.6793 22.2681 51.4762C22.2681 56.3914 26.1998 60.1271 31 60.1273C33.183 60.1275 35.1788 59.3337 36.7096 58.0219C32.5305 57.408 29.3004 53.922 29.3004 49.467V49.467Z" fill="#1CBBEA"/>
<path d="M24.413 24.4473C25.6186 24.4473 26.596 23.4699 26.596 22.2643C26.596 21.0587 25.6186 20.0813 24.413 20.0813C23.2073 20.0813 22.23 21.0587 22.23 22.2643C22.23 23.4699 23.2073 24.4473 24.413 24.4473Z" fill="#1CBBEA"/>
<path d="M31.0043 24.0107C32.7266 24.0107 34.1229 22.6144 34.1229 20.8921C34.1229 19.1698 32.7266 17.7736 31.0043 17.7736C29.282 17.7736 27.8857 19.1698 27.8857 20.8921C27.8857 22.6144 29.282 24.0107 31.0043 24.0107Z" fill="#1CBBEA"/>
<path d="M37.5868 24.4473C38.7924 24.4473 39.7698 23.4699 39.7698 22.2643C39.7698 21.0587 38.7924 20.0813 37.5868 20.0813C36.3812 20.0813 35.4038 21.0587 35.4038 22.2643C35.4038 23.4699 36.3812 24.4473 37.5868 24.4473Z" fill="#2ED0FC"/>
<path d="M42.3779 26.9179C40.5813 24.588 38.1277 22.9082 35.3851 22.0376H29.8676L19.8047 33.9053L29.4555 46.4901H34.973C35.7343 46.3104 36.4721 46.0814 37.1755 45.8005C42.0082 43.8714 45.3454 39.6174 45.3454 33.9052C45.3454 31.5864 44.1165 29.1725 42.3779 26.9179V26.9179Z" fill="#2ED0FC"/>
<path d="M31.0001 45.1481C26.9329 43.0019 24.2188 39.0453 24.2188 33.9053C24.2188 29.2189 27.7384 24.0113 33.4868 22.526L35.3852 22.0376C33.9827 21.5924 32.5048 21.3583 31.0001 21.3583C26.5533 21.3583 22.3378 23.3964 19.6224 26.9179C17.8839 29.1725 16.6548 31.5864 16.6548 33.9053C16.6548 41.828 23.0774 46.9464 31.0001 46.9464C32.3412 46.9464 33.6505 46.8026 34.9731 46.4902C33.5582 46.2717 32.2207 45.818 31.0001 45.1741V45.1481Z" fill="#1CBBEA"/>
<path d="M22.425 40.2918C24.189 40.2918 25.619 39.153 25.619 37.7482C25.619 36.3434 24.189 35.2046 22.425 35.2046C20.661 35.2046 19.231 36.3434 19.231 37.7482C19.231 39.153 20.661 40.2918 22.425 40.2918Z" fill="#FF8E9E"/>
<path d="M39.7376 35.2046C37.9735 35.2046 36.5435 36.3434 36.5435 37.7482C36.5435 39.1531 37.9735 40.2918 39.7376 40.2918C41.5016 40.2918 42.9316 39.1531 42.9316 37.7482C42.9317 36.3434 41.5017 35.2046 39.7376 35.2046Z" fill="#FF8E9E"/>
<path d="M23.2105 33.491C22.6938 33.491 22.2749 33.9097 22.2749 34.4265V35.9234C22.2749 36.4403 22.6938 36.859 23.2105 36.859C23.7272 36.859 24.146 36.4403 24.146 35.9234V34.4265C24.146 33.9097 23.7272 33.491 23.2105 33.491Z" fill="#313D40"/>
<path d="M38.7905 33.491C38.2739 33.491 37.855 33.9097 37.855 34.4265V35.9234C37.855 36.4403 38.2739 36.859 38.7905 36.859C39.3072 36.859 39.7261 36.4403 39.7261 35.9234V34.4265C39.7261 33.9097 39.3072 33.491 38.7905 33.491Z" fill="#313D40"/>
<path d="M32.6067 34.5125H30.2544L30.2676 41.5689H32.6199L33.4317 40.7352C34.0887 40.0778 34.7425 39.1163 34.7425 38.0964C34.7424 36.3423 33.8248 35.0918 32.6067 34.5125V34.5125Z" fill="#EFEDFF"/>
<path d="M30.4654 38.0966C30.4654 37.658 30.4763 37.1762 30.719 36.5483C31.0659 35.6513 31.7463 34.9227 32.6065 34.5125C32.1073 34.2751 31.5579 34.1498 31.0001 34.1498C29.411 34.1498 28.0542 35.145 27.5114 36.5483C27.2687 37.176 27.2578 37.658 27.2578 38.0966C27.2578 39.1165 27.9116 40.078 28.5686 40.7354L29.9999 42.1498C30.2748 42.4298 30.624 42.5699 31.0001 42.5699C31.3762 42.5699 31.7793 42.4299 32.0543 42.1498L32.6199 41.569L31.7762 40.7353C31.1191 40.0779 30.4654 39.1165 30.4654 38.0966V38.0966Z" fill="#D4D4FF"/>
<path d="M29.129 58.2561H25.3868C24.3534 58.2561 23.5156 59.0939 23.5156 60.1272C23.5156 61.1606 24.3534 61.9984 25.3868 61.9984H29.129C30.1624 61.9984 31.0002 61.1606 31.0002 60.1272C31.0002 59.0939 30.1625 58.2561 29.129 58.2561Z" fill="#D4D4FF"/>
<path d="M36.6134 58.2561H32.8711C31.8378 58.2561 31 59.0939 31 60.1272C31 61.1606 31.8378 61.9984 32.8711 61.9984H36.6134C37.6468 61.9984 38.4845 61.1606 38.4845 60.1272C38.4845 59.0939 37.6469 58.2561 36.6134 58.2561Z" fill="#EFEDFF"/>
<path d="M30.9682 13.7232C33.7239 13.7232 35.9579 11.4892 35.9579 8.73346C35.9579 5.97773 33.7239 3.74377 30.9682 3.74377C28.2125 3.74377 25.9785 5.97773 25.9785 8.73346C25.9785 11.4892 28.2125 13.7232 30.9682 13.7232Z" fill="#FCE3A0"/>
<path d="M30.9683 10.6046C32.0017 10.6046 32.8394 9.76684 32.8394 8.73344C32.8394 7.70004 32.0017 6.8623 30.9683 6.8623C29.9349 6.8623 29.0972 7.70004 29.0972 8.73344C29.0972 9.76684 29.9349 10.6046 30.9683 10.6046Z" fill="#1CBBEA"/>
<path d="M14.8972 19.7402C17.4462 19.7402 19.5127 17.6738 19.5127 15.1247C19.5127 12.5757 17.4462 10.5093 14.8972 10.5093C12.3482 10.5093 10.2817 12.5757 10.2817 15.1247C10.2817 17.6738 12.3482 19.7402 14.8972 19.7402Z" fill="#FFCE71"/>
<path d="M14.897 16.0603C15.4137 16.0603 15.8326 15.6415 15.8326 15.1248C15.8326 14.6081 15.4137 14.1892 14.897 14.1892C14.3803 14.1892 13.9614 14.6081 13.9614 15.1248C13.9614 15.6415 14.3803 16.0603 14.897 16.0603Z" fill="#1CBBEA"/>
<path d="M7.39829 34.5477C9.39619 34.5477 11.0158 32.928 11.0158 30.9301C11.0158 28.9322 9.39619 27.3126 7.39829 27.3126C5.40038 27.3126 3.78076 28.9322 3.78076 30.9301C3.78076 32.928 5.40038 34.5477 7.39829 34.5477Z" fill="#FFCE71"/>
<path d="M7.39846 31.8656C7.91516 31.8656 8.33402 31.4468 8.33402 30.9301C8.33402 30.4134 7.91516 29.9945 7.39846 29.9945C6.88176 29.9945 6.46289 30.4134 6.46289 30.9301C6.46289 31.4468 6.88176 31.8656 7.39846 31.8656Z" fill="#1CBBEA"/>
<path d="M47.1028 19.7402C49.6518 19.7402 51.7182 17.6738 51.7182 15.1247C51.7182 12.5757 49.6518 10.5093 47.1028 10.5093C44.5537 10.5093 42.4873 12.5757 42.4873 15.1247C42.4873 17.6738 44.5537 19.7402 47.1028 19.7402Z" fill="#FFCE71"/>
<path d="M47.1026 16.0603C47.6193 16.0603 48.0381 15.6415 48.0381 15.1248C48.0381 14.6081 47.6193 14.1892 47.1026 14.1892C46.5859 14.1892 46.167 14.6081 46.167 15.1248C46.167 15.6415 46.5859 16.0603 47.1026 16.0603Z" fill="#1CBBEA"/>
<path d="M54.6019 34.5477C56.5998 34.5477 58.2194 32.928 58.2194 30.9301C58.2194 28.9322 56.5998 27.3126 54.6019 27.3126C52.604 27.3126 50.9844 28.9322 50.9844 30.9301C50.9844 32.928 52.604 34.5477 54.6019 34.5477Z" fill="#FFCE71"/>
<path d="M54.6021 31.8656C55.1188 31.8656 55.5376 31.4468 55.5376 30.9301C55.5376 30.4134 55.1188 29.9945 54.6021 29.9945C54.0854 29.9945 53.6665 30.4134 53.6665 30.9301C53.6665 31.4468 54.0854 31.8656 54.6021 31.8656Z" fill="#1CBBEA"/>
</g>
<path d="M83.8377 40.852V48.958C83.5297 49.042 83.0957 49.112 82.5357 49.168C81.9757 49.252 81.3877 49.294 80.7717 49.294C79.4557 49.294 78.5317 49.07 77.9997 48.622C77.4957 48.174 77.2437 47.362 77.2437 46.186V25.816C77.2437 25.256 77.3837 24.822 77.6637 24.514C77.9717 24.206 78.4057 23.968 78.9657 23.8C79.4137 23.632 79.9177 23.492 80.4777 23.38C81.0657 23.268 81.6537 23.17 82.2417 23.086C82.8577 23.002 83.4597 22.946 84.0477 22.918C84.6637 22.89 85.2377 22.876 85.7697 22.876C89.5777 22.876 92.4617 23.688 94.4217 25.312C96.3817 26.908 97.3617 29.106 97.3617 31.906C97.3617 33.25 97.1097 34.482 96.6057 35.602C96.1297 36.694 95.4297 37.632 94.5057 38.416C93.5817 39.2 92.4477 39.802 91.1037 40.222C89.7877 40.642 88.2897 40.852 86.6097 40.852H83.8377ZM86.1897 35.686C87.5617 35.686 88.6537 35.378 89.4657 34.762C90.2777 34.118 90.6837 33.166 90.6837 31.906C90.6837 29.414 89.1997 28.168 86.2317 28.168C85.7277 28.168 85.2797 28.182 84.8877 28.21C84.5237 28.238 84.1597 28.28 83.7957 28.336V35.686H86.1897ZM105.741 41.566C106.133 42.742 106.819 43.582 107.799 44.086C108.779 44.562 109.913 44.8 111.201 44.8C112.377 44.8 113.483 44.646 114.519 44.338C115.555 44.002 116.395 43.638 117.039 43.246C117.459 43.526 117.809 43.89 118.089 44.338C118.369 44.786 118.509 45.276 118.509 45.808C118.509 46.452 118.313 47.012 117.921 47.488C117.529 47.964 116.983 48.37 116.283 48.706C115.611 49.014 114.799 49.238 113.847 49.378C112.923 49.546 111.901 49.63 110.781 49.63C109.129 49.63 107.603 49.406 106.203 48.958C104.803 48.482 103.599 47.796 102.591 46.9C101.583 45.976 100.785 44.828 100.197 43.456C99.6367 42.084 99.3567 40.474 99.3567 38.626C99.3567 36.834 99.6367 35.28 100.197 33.964C100.785 32.648 101.555 31.556 102.507 30.688C103.487 29.82 104.593 29.19 105.825 28.798C107.085 28.378 108.373 28.168 109.689 28.168C111.117 28.168 112.419 28.392 113.595 28.84C114.799 29.26 115.821 29.862 116.661 30.646C117.529 31.43 118.201 32.368 118.677 33.46C119.153 34.552 119.391 35.742 119.391 37.03C119.391 37.926 119.153 38.598 118.677 39.046C118.201 39.494 117.529 39.788 116.661 39.928L105.741 41.566ZM109.731 32.914C108.527 32.914 107.519 33.292 106.707 34.048C105.923 34.776 105.461 35.84 105.321 37.24L113.343 35.938C113.287 35.21 112.965 34.524 112.377 33.88C111.789 33.236 110.907 32.914 109.731 32.914ZM131.485 44.926C132.101 44.926 132.703 44.87 133.291 44.758C133.907 44.618 134.369 44.45 134.677 44.254V40.39L131.233 40.684C130.337 40.768 129.609 40.978 129.049 41.314C128.517 41.622 128.251 42.098 128.251 42.742C128.251 43.414 128.503 43.946 129.007 44.338C129.511 44.73 130.337 44.926 131.485 44.926ZM131.233 28.168C132.689 28.168 134.005 28.322 135.181 28.63C136.385 28.91 137.407 29.358 138.247 29.974C139.087 30.59 139.731 31.374 140.179 32.326C140.655 33.278 140.893 34.398 140.893 35.686V45.178C140.893 45.906 140.697 46.494 140.305 46.942C139.941 47.362 139.493 47.726 138.961 48.034C138.093 48.566 137.029 48.972 135.769 49.252C134.509 49.532 133.081 49.672 131.485 49.672C128.601 49.672 126.305 49.126 124.597 48.034C122.889 46.914 122.035 45.22 122.035 42.952C122.035 41.02 122.609 39.55 123.757 38.542C124.905 37.534 126.669 36.904 129.049 36.652L134.635 36.064V35.602C134.635 34.706 134.271 34.048 133.543 33.628C132.815 33.208 131.765 32.998 130.393 32.998C129.329 32.998 128.279 33.124 127.243 33.376C126.235 33.628 125.325 33.922 124.513 34.258C124.177 34.034 123.883 33.698 123.631 33.25C123.407 32.774 123.295 32.27 123.295 31.738C123.295 30.506 123.939 29.624 125.227 29.092C126.039 28.784 126.977 28.56 128.041 28.42C129.133 28.252 130.197 28.168 131.233 28.168ZM156.608 33.25C155.096 33.25 153.808 33.74 152.744 34.72C151.68 35.672 151.148 37.086 151.148 38.962C151.148 40.838 151.652 42.238 152.66 43.162C153.696 44.086 154.998 44.548 156.566 44.548C157.462 44.548 158.246 44.436 158.918 44.212C159.618 43.96 160.206 43.708 160.682 43.456C161.158 43.82 161.522 44.212 161.774 44.632C162.054 45.024 162.194 45.514 162.194 46.102C162.194 47.166 161.634 48.02 160.514 48.664C159.394 49.308 157.84 49.63 155.852 49.63C154.172 49.63 152.632 49.406 151.232 48.958C149.86 48.51 148.684 47.838 147.704 46.942C146.724 46.046 145.968 44.94 145.436 43.624C144.904 42.28 144.638 40.726 144.638 38.962C144.638 37.142 144.932 35.56 145.52 34.216C146.108 32.872 146.906 31.752 147.914 30.856C148.922 29.96 150.098 29.288 151.442 28.84C152.786 28.392 154.2 28.168 155.684 28.168C157.616 28.168 159.128 28.518 160.22 29.218C161.34 29.918 161.9 30.8 161.9 31.864C161.9 32.368 161.774 32.83 161.522 33.25C161.298 33.67 161.018 34.034 160.682 34.342C160.178 34.062 159.576 33.81 158.876 33.586C158.204 33.362 157.448 33.25 156.608 33.25ZM185.993 38.878C185.993 40.53 185.741 42.028 185.237 43.372C184.733 44.688 184.005 45.808 183.053 46.732C182.129 47.656 181.009 48.37 179.693 48.874C178.377 49.378 176.907 49.63 175.283 49.63C173.659 49.63 172.175 49.392 170.831 48.916C169.515 48.412 168.381 47.698 167.429 46.774C166.505 45.85 165.791 44.73 165.287 43.414C164.783 42.07 164.531 40.558 164.531 38.878C164.531 37.254 164.783 35.784 165.287 34.468C165.819 33.124 166.547 31.99 167.471 31.066C168.423 30.142 169.557 29.428 170.873 28.924C172.217 28.42 173.687 28.168 175.283 28.168C176.879 28.168 178.335 28.42 179.651 28.924C180.967 29.428 182.087 30.156 183.011 31.108C183.963 32.032 184.691 33.152 185.195 34.468C185.727 35.784 185.993 37.254 185.993 38.878ZM175.283 33.208C173.967 33.208 172.945 33.698 172.217 34.678C171.489 35.658 171.125 37.058 171.125 38.878C171.125 40.754 171.475 42.182 172.175 43.162C172.903 44.114 173.939 44.59 175.283 44.59C176.627 44.59 177.649 44.1 178.349 43.12C179.077 42.14 179.441 40.726 179.441 38.878C179.441 37.086 179.077 35.7 178.349 34.72C177.621 33.712 176.599 33.208 175.283 33.208ZM200.864 33.25C199.352 33.25 198.064 33.74 197 34.72C195.936 35.672 195.404 37.086 195.404 38.962C195.404 40.838 195.908 42.238 196.916 43.162C197.952 44.086 199.254 44.548 200.822 44.548C201.718 44.548 202.502 44.436 203.174 44.212C203.874 43.96 204.462 43.708 204.938 43.456C205.414 43.82 205.778 44.212 206.03 44.632C206.31 45.024 206.45 45.514 206.45 46.102C206.45 47.166 205.89 48.02 204.77 48.664C203.65 49.308 202.096 49.63 200.108 49.63C198.428 49.63 196.888 49.406 195.488 48.958C194.116 48.51 192.94 47.838 191.96 46.942C190.98 46.046 190.224 44.94 189.692 43.624C189.16 42.28 188.894 40.726 188.894 38.962C188.894 37.142 189.188 35.56 189.776 34.216C190.364 32.872 191.162 31.752 192.17 30.856C193.178 29.96 194.354 29.288 195.698 28.84C197.042 28.392 198.456 28.168 199.94 28.168C201.872 28.168 203.384 28.518 204.476 29.218C205.596 29.918 206.156 30.8 206.156 31.864C206.156 32.368 206.03 32.83 205.778 33.25C205.554 33.67 205.274 34.034 204.938 34.342C204.434 34.062 203.832 33.81 203.132 33.586C202.46 33.362 201.704 33.25 200.864 33.25ZM222.255 38.626L229.521 45.682C229.381 46.858 229.017 47.768 228.429 48.412C227.869 49.028 227.057 49.336 225.993 49.336C225.181 49.336 224.467 49.14 223.851 48.748C223.235 48.356 222.549 47.712 221.793 46.816L216.795 40.894V48.958C216.515 49.042 216.123 49.112 215.619 49.168C215.115 49.252 214.555 49.294 213.939 49.294C212.679 49.294 211.769 49.098 211.209 48.706C210.649 48.286 210.369 47.488 210.369 46.312V21.658C210.677 21.574 211.083 21.49 211.587 21.406C212.091 21.322 212.651 21.28 213.267 21.28C214.527 21.28 215.423 21.49 215.955 21.91C216.515 22.33 216.795 23.128 216.795 24.304V36.19L224.397 28.462C225.713 28.462 226.763 28.756 227.547 29.344C228.331 29.932 228.723 30.66 228.723 31.528C228.723 32.284 228.457 32.956 227.925 33.544C227.421 34.104 226.623 34.86 225.531 35.812L222.255 38.626Z" fill="#F1F1F1"/>
<defs>
<clipPath id="clip0_717_8">
<rect width="62" height="62" fill="white"/>
</clipPath>
</defs>
</svg>
