<svg width="62" height="62" viewBox="0 0 62 62" fill="none" xmlns="http://www.w3.org/2000/svg">
<g clip-path="url(#clip0_717_9)">
<path d="M49.6299 25.2104L53.5762 20.5487C56.3597 17.2608 56.0638 12.2842 53.0513 9.2048C48.4518 4.59907 40.4515 6.79728 38.9694 13.1354L31 25.0771V47.2165L57.0535 37.9727C59.9935 36.9296 61.9951 34.0543 62.0001 30.9348C61.966 24.4594 54.2589 21.2232 49.6299 25.2104V25.2104Z" fill="#B0EBD8"/>
<path d="M23.0305 13.1354C21.5485 6.79728 13.548 4.59907 8.94863 9.2048C5.93611 12.2842 5.64022 17.2609 8.42372 20.5487L13.1049 26.0783C8.64975 20.8169 0.0369237 24.0384 0 30.933C0.0047402 34.0532 2.00598 36.9294 4.94653 37.9726L30.9999 47.2164V24.9503L23.0305 13.1354Z" fill="#30CD9C"/>
<path d="M31 0.00158691C25.4089 0.0212962 21.1895 5.26184 22.4625 10.7061L31 47.2164L39.5375 10.7061C40.8106 5.26184 36.5911 0.0212962 31 0.00158691V0.00158691Z" fill="#70DCBA"/>
<path d="M33.6848 39.7915H29.6662L25.2817 49.467L32.6908 58.0218H36.7094C38.5606 56.4354 39.7318 54.0911 39.7318 51.4762C39.7318 47.5962 36.6333 43.0867 33.6848 39.7915V39.7915Z" fill="#2ED0FC"/>
<path d="M29.3004 49.467C29.3004 46.3931 31.3504 42.7982 33.6849 39.7915H28.3238C25.3956 43.0878 22.2681 47.6793 22.2681 51.4762C22.2681 56.3914 26.1998 60.1271 31 60.1273C33.183 60.1275 35.1788 59.3337 36.7096 58.0219C32.5305 57.408 29.3004 53.922 29.3004 49.467V49.467Z" fill="#1CBBEA"/>
<path d="M24.413 24.4473C25.6186 24.4473 26.596 23.4699 26.596 22.2643C26.596 21.0587 25.6186 20.0813 24.413 20.0813C23.2073 20.0813 22.23 21.0587 22.23 22.2643C22.23 23.4699 23.2073 24.4473 24.413 24.4473Z" fill="#1CBBEA"/>
<path d="M31.0043 24.0107C32.7266 24.0107 34.1229 22.6144 34.1229 20.8921C34.1229 19.1698 32.7266 17.7736 31.0043 17.7736C29.282 17.7736 27.8857 19.1698 27.8857 20.8921C27.8857 22.6144 29.282 24.0107 31.0043 24.0107Z" fill="#1CBBEA"/>
<path d="M37.5868 24.4473C38.7924 24.4473 39.7698 23.4699 39.7698 22.2643C39.7698 21.0587 38.7924 20.0813 37.5868 20.0813C36.3812 20.0813 35.4038 21.0587 35.4038 22.2643C35.4038 23.4699 36.3812 24.4473 37.5868 24.4473Z" fill="#2ED0FC"/>
<path d="M42.3779 26.9179C40.5813 24.588 38.1277 22.9082 35.3851 22.0376H29.8676L19.8047 33.9053L29.4555 46.4901H34.973C35.7343 46.3104 36.4721 46.0814 37.1755 45.8005C42.0082 43.8714 45.3454 39.6174 45.3454 33.9052C45.3454 31.5864 44.1165 29.1725 42.3779 26.9179V26.9179Z" fill="#2ED0FC"/>
<path d="M31.0001 45.1481C26.9329 43.0019 24.2188 39.0453 24.2188 33.9053C24.2188 29.2189 27.7384 24.0113 33.4868 22.526L35.3852 22.0376C33.9827 21.5924 32.5048 21.3583 31.0001 21.3583C26.5533 21.3583 22.3378 23.3964 19.6224 26.9179C17.8839 29.1725 16.6548 31.5864 16.6548 33.9053C16.6548 41.828 23.0774 46.9464 31.0001 46.9464C32.3412 46.9464 33.6505 46.8026 34.9731 46.4902C33.5582 46.2717 32.2207 45.818 31.0001 45.1741V45.1481Z" fill="#1CBBEA"/>
<path d="M22.425 40.2918C24.189 40.2918 25.619 39.153 25.619 37.7482C25.619 36.3434 24.189 35.2046 22.425 35.2046C20.661 35.2046 19.231 36.3434 19.231 37.7482C19.231 39.153 20.661 40.2918 22.425 40.2918Z" fill="#FF8E9E"/>
<path d="M39.7376 35.2046C37.9735 35.2046 36.5435 36.3434 36.5435 37.7482C36.5435 39.1531 37.9735 40.2918 39.7376 40.2918C41.5016 40.2918 42.9316 39.1531 42.9316 37.7482C42.9317 36.3434 41.5017 35.2046 39.7376 35.2046Z" fill="#FF8E9E"/>
<path d="M23.2105 33.491C22.6938 33.491 22.2749 33.9097 22.2749 34.4265V35.9234C22.2749 36.4403 22.6938 36.859 23.2105 36.859C23.7272 36.859 24.146 36.4403 24.146 35.9234V34.4265C24.146 33.9097 23.7272 33.491 23.2105 33.491Z" fill="#313D40"/>
<path d="M38.7905 33.491C38.2739 33.491 37.855 33.9097 37.855 34.4265V35.9234C37.855 36.4403 38.2739 36.859 38.7905 36.859C39.3072 36.859 39.7261 36.4403 39.7261 35.9234V34.4265C39.7261 33.9097 39.3072 33.491 38.7905 33.491Z" fill="#313D40"/>
<path d="M32.6067 34.5125H30.2544L30.2676 41.5689H32.6199L33.4317 40.7352C34.0887 40.0778 34.7425 39.1163 34.7425 38.0964C34.7424 36.3423 33.8248 35.0918 32.6067 34.5125V34.5125Z" fill="#EFEDFF"/>
<path d="M30.4654 38.0966C30.4654 37.658 30.4763 37.1762 30.719 36.5483C31.0659 35.6513 31.7463 34.9227 32.6065 34.5125C32.1073 34.2751 31.5579 34.1498 31.0001 34.1498C29.411 34.1498 28.0542 35.145 27.5114 36.5483C27.2687 37.176 27.2578 37.658 27.2578 38.0966C27.2578 39.1165 27.9116 40.078 28.5686 40.7354L29.9999 42.1498C30.2748 42.4298 30.624 42.5699 31.0001 42.5699C31.3762 42.5699 31.7793 42.4299 32.0543 42.1498L32.6199 41.569L31.7762 40.7353C31.1191 40.0779 30.4654 39.1165 30.4654 38.0966V38.0966Z" fill="#D4D4FF"/>
<path d="M29.129 58.2561H25.3868C24.3534 58.2561 23.5156 59.0939 23.5156 60.1272C23.5156 61.1606 24.3534 61.9984 25.3868 61.9984H29.129C30.1624 61.9984 31.0002 61.1606 31.0002 60.1272C31.0002 59.0939 30.1625 58.2561 29.129 58.2561Z" fill="#D4D4FF"/>
<path d="M36.6134 58.2561H32.8711C31.8378 58.2561 31 59.0939 31 60.1272C31 61.1606 31.8378 61.9984 32.8711 61.9984H36.6134C37.6468 61.9984 38.4845 61.1606 38.4845 60.1272C38.4845 59.0939 37.6469 58.2561 36.6134 58.2561Z" fill="#EFEDFF"/>
<path d="M30.9682 13.7232C33.7239 13.7232 35.9579 11.4892 35.9579 8.73346C35.9579 5.97773 33.7239 3.74377 30.9682 3.74377C28.2125 3.74377 25.9785 5.97773 25.9785 8.73346C25.9785 11.4892 28.2125 13.7232 30.9682 13.7232Z" fill="#FCE3A0"/>
<path d="M30.9683 10.6046C32.0017 10.6046 32.8394 9.76684 32.8394 8.73344C32.8394 7.70004 32.0017 6.8623 30.9683 6.8623C29.9349 6.8623 29.0972 7.70004 29.0972 8.73344C29.0972 9.76684 29.9349 10.6046 30.9683 10.6046Z" fill="#1CBBEA"/>
<path d="M14.8972 19.7402C17.4462 19.7402 19.5127 17.6738 19.5127 15.1247C19.5127 12.5757 17.4462 10.5093 14.8972 10.5093C12.3482 10.5093 10.2817 12.5757 10.2817 15.1247C10.2817 17.6738 12.3482 19.7402 14.8972 19.7402Z" fill="#FFCE71"/>
<path d="M14.897 16.0603C15.4137 16.0603 15.8326 15.6415 15.8326 15.1248C15.8326 14.6081 15.4137 14.1892 14.897 14.1892C14.3803 14.1892 13.9614 14.6081 13.9614 15.1248C13.9614 15.6415 14.3803 16.0603 14.897 16.0603Z" fill="#1CBBEA"/>
<path d="M7.39829 34.5477C9.39619 34.5477 11.0158 32.928 11.0158 30.9301C11.0158 28.9322 9.39619 27.3126 7.39829 27.3126C5.40038 27.3126 3.78076 28.9322 3.78076 30.9301C3.78076 32.928 5.40038 34.5477 7.39829 34.5477Z" fill="#FFCE71"/>
<path d="M7.39846 31.8656C7.91516 31.8656 8.33402 31.4468 8.33402 30.9301C8.33402 30.4134 7.91516 29.9945 7.39846 29.9945C6.88176 29.9945 6.46289 30.4134 6.46289 30.9301C6.46289 31.4468 6.88176 31.8656 7.39846 31.8656Z" fill="#1CBBEA"/>
<path d="M47.1028 19.7402C49.6518 19.7402 51.7182 17.6738 51.7182 15.1247C51.7182 12.5757 49.6518 10.5093 47.1028 10.5093C44.5537 10.5093 42.4873 12.5757 42.4873 15.1247C42.4873 17.6738 44.5537 19.7402 47.1028 19.7402Z" fill="#FFCE71"/>
<path d="M47.1026 16.0603C47.6193 16.0603 48.0381 15.6415 48.0381 15.1248C48.0381 14.6081 47.6193 14.1892 47.1026 14.1892C46.5859 14.1892 46.167 14.6081 46.167 15.1248C46.167 15.6415 46.5859 16.0603 47.1026 16.0603Z" fill="#1CBBEA"/>
<path d="M54.6019 34.5477C56.5998 34.5477 58.2194 32.928 58.2194 30.9301C58.2194 28.9322 56.5998 27.3126 54.6019 27.3126C52.604 27.3126 50.9844 28.9322 50.9844 30.9301C50.9844 32.928 52.604 34.5477 54.6019 34.5477Z" fill="#FFCE71"/>
<path d="M54.6021 31.8656C55.1188 31.8656 55.5376 31.4468 55.5376 30.9301C55.5376 30.4134 55.1188 29.9945 54.6021 29.9945C54.0854 29.9945 53.6665 30.4134 53.6665 30.9301C53.6665 31.4468 54.0854 31.8656 54.6021 31.8656Z" fill="#1CBBEA"/>
</g>
<defs>
<clipPath id="clip0_717_9">
<rect width="62" height="62" fill="white"/>
</clipPath>
</defs>
</svg>
